
        <svg xmlns="http://www.w3.org/2000/svg" xmlns:xlink="http://www.w3.org/1999/xlink" version="1.1" width="3192" height="3192" viewBox="0 0 3192 3192">
			
			<g transform="scale(9.6) translate(10, 10)">
				<defs id="SvgjsDefs6662"/><g id="SvgjsG6663" featureKey="rootContainer" transform="matrix(6.188118811881188,0,0,6.188118811881188,0,0.06187707185745239)" fill="#000"><path xmlns="http://www.w3.org/2000/svg" d="M25.25 50.49A25.25 25.25 0 1 1 50.5 25.24a25.28 25.28 0 0 1-25.25 25.25zm0-50.14a24.89 24.89 0 1 0 24.89 24.89A24.92 24.92 0 0 0 25.25.35z"/></g><g id="SvgjsG6664" featureKey="nameFeature-0" transform="matrix(3.952569289153006,0,0,3.952569289153006,52.837948997797575,15.086957308409843)" fill="#000"><path d="M20.36 13.64 l0 6.92 c0 0.12 -0.08 0.2 -0.2 0.2 s-0.2 -0.08 -0.2 -0.2 l0 -2 c0 -2.76 -1.64 -4.52 -4.92 -4.52 l-2.36 0 c-0.52 0 -0.84 0.4 -0.84 0.84 l0 23.88 c0 0.44 0.32 0.84 0.84 0.84 l1.16 0 c0.12 0 0.2 0.08 0.2 0.2 s-0.08 0.2 -0.2 0.2 l-6.52 0 c-0.12 0 -0.2 -0.08 -0.2 -0.2 s0.08 -0.2 0.2 -0.2 l1.16 0 c0.52 0 0.84 -0.4 0.84 -0.84 l0 -23.88 c0 -0.44 -0.32 -0.84 -0.84 -0.84 l-1.56 0 c-3.68 0 -5.72 1.36 -5.72 5.32 l0 1.2 c0 0.12 -0.08 0.2 -0.2 0.2 s-0.2 -0.08 -0.2 -0.2 l0 -6.92 l19.56 0 z M29.2 13.64 c0.12 0 0.2 0.08 0.2 0.2 s-0.08 0.2 -0.2 0.2 l-1.16 0 c-0.52 0 -0.84 0.4 -0.84 0.84 l0 30.32 c0 2.72 -2.12 4.24 -5.04 4.24 c-2.36 0 -4.84 -1.28 -4.84 -3.52 c0 -1.48 0.64 -2.16 1.6 -2.16 c0.92 0 1.36 0.56 1.36 1.32 c0 1.04 -1.16 1.32 -1.16 2.24 c0 0.84 1.12 1.68 2.64 1.68 c2.6 0 2.92 -2.2 2.92 -4.52 l0 -5.28 l0 -24.32 c0 -0.44 -0.32 -0.84 -0.84 -0.84 l-1.16 0 c-0.12 0 -0.2 -0.08 -0.2 -0.2 s0.08 -0.2 0.2 -0.2 l6.52 0 z M42.92 26.4 c5.6 0.24 8.48 2.44 8.48 6.28 c0 4.76 -3.76 7.32 -9.88 7.32 l-9.2 0 c-0.12 0 -0.2 -0.08 -0.2 -0.2 s0.08 -0.2 0.2 -0.2 l1.16 0 c0.52 0 0.84 -0.4 0.84 -0.84 l0 -23.88 c0 -0.44 -0.32 -0.84 -0.84 -0.84 l-1.16 0 c-0.12 0 -0.2 -0.08 -0.2 -0.2 s0.08 -0.2 0.2 -0.2 l8.4 0 c4.68 0 8.92 1.76 8.92 6.52 c0 3.04 -2.2 5.64 -6.72 6.24 z M36.839999999999996 14.879999999999999 l0 11.44 l4.28 0 c3.2 0 5.92 -2.76 5.92 -6.16 s-1.64 -6.12 -5.92 -6.12 l-3.44 0 c-0.52 0 -0.84 0.4 -0.84 0.84 z M41.92 39.6 c4.92 0 6.88 -3.16 6.88 -6.92 c0 -3.44 -2.28 -5.96 -6.88 -5.96 l-5.08 0 l0 12.04 c0 0.44 0.32 0.84 0.84 0.84 l4.24 0 z"/></g><g id="SvgjsG6665" featureKey="sloganFeature-0" transform="matrix(0.7444608953131684,0,0,0.7444608953131684,80,227.38193592377954)" fill="#000"><path d="M7.68 6.460000000000001 l-3.1 0 l0 13.54 l-1.48 0 l0 -13.54 l-3.1 0 l0 -1.46 l7.68 0 l0 1.46 z M18.4185 20 l-7.5 0 l0 -15 l7.36 0 l0 1.52 l-5.98 0 l0 5.16 l5.94 0 l0 1.3 l-5.94 0 l0 5.5 l6.12 0 l0 1.52 z M30.457 20 l-1.72 -0.000019531 l-3.14 -6.06 l-2.6 0 l0 6.06 l-1.34 0 l0 -15 l3.44 0 c1.3733 0 2.46 0.39334 3.26 1.18 s1.2 1.8667 1.2 3.24 c0 0.42666 -0.05666 0.86 -0.17 1.3 s-0.27668 0.85334 -0.49002 1.24 s-0.47668 0.73666 -0.79002 1.05 s-0.67 0.55668 -1.07 0.73002 z M28.137 9.32 c0 -0.46666 -0.08 -0.88664 -0.24 -1.26 s-0.38 -0.69 -0.66 -0.95 s-0.61334 -0.46 -1 -0.6 s-0.80666 -0.21 -1.26 -0.21 l-1.98 0 l0 6.26 l2.1 0 c1.0667 0 1.84 -0.28666 2.32 -0.86 s0.72 -1.3667 0.72 -2.38 z M41.1755 20 l-7.5 0 l0 -15 l7.36 0 l0 1.52 l-5.98 0 l0 5.16 l5.94 0 l0 1.3 l-5.94 0 l0 5.5 l6.12 0 l0 1.52 z M51.634 16.12 c0 1.2267 -0.3199 2.21 -0.9599 2.95 s-1.5933 1.11 -2.86 1.11 c-0.74666 0 -1.3767 -0.10666 -1.89 -0.32 s-0.93 -0.52 -1.25 -0.92 s-0.55 -0.88 -0.69 -1.44 s-0.20334 -1.1867 -0.19 -1.88 l0.02 -0.52 l1.54 0 c0 0.42666 0.01334 0.86332 0.04 1.31 s0.11332 0.85332 0.25998 1.22 s0.37332 0.66666 0.67998 0.9 s0.74666 0.35 1.32 0.35 c0.88 0 1.5267 -0.23334 1.94 -0.7 s0.62 -1.12 0.62 -1.96 c0 -0.66666 -0.16 -1.1933 -0.48 -1.58 s-0.72 -0.71332 -1.2 -0.97998 s-0.99666 -0.50666 -1.55 -0.72 s-1.07 -0.48 -1.55 -0.8 s-0.88 -0.73 -1.2 -1.23 s-0.48 -1.1633 -0.48 -1.99 c0 -1.3333 0.34334 -2.3434 1.03 -3.03 s1.6967 -1.03 3.03 -1.03 c0.62666 0 1.17 0.1 1.63 0.3 s0.84334 0.48 1.15 0.84 s0.53332 0.78666 0.67998 1.28 s0.22 1.04 0.22 1.64 l0 1.26 l-1.46 0 c0 -0.44 -0.0033398 -0.89666 -0.01 -1.37 s-0.07666 -0.90668 -0.21 -1.3 s-0.35668 -0.71668 -0.67002 -0.97002 s-0.77 -0.38 -1.37 -0.38 c-0.86666 0 -1.52 0.22 -1.96 0.66 s-0.64666 1.0867 -0.62 1.94 l0 0.2 c0.01334 0.41334 0.08334 0.75668 0.21 1.03 s0.3 0.50668 0.52 0.70002 s0.47666 0.36334 0.77 0.51 s0.61334 0.3 0.96 0.46 c0.50666 0.22666 1 0.46666 1.48 0.72 s0.90334 0.55 1.27 0.89 s0.66332 0.74 0.88998 1.2 s0.34 1.01 0.34 1.65 z M63.5525 20 l-1.4 0 l-1.06 -4.3 l-4.36 0 l-1.06 4.3 l-1.36 0 l4.06 -15 l1.14 0 z M60.7525 14.36 l-1.78 -7.42 l-1.9 7.42 l3.68 0 z M76.34949999999999 15.96 c0 0.66666 -0.06 1.2734 -0.18 1.82 s-0.32666 1.0133 -0.62 1.4 s-0.67668 0.68332 -1.15 0.88998 s-1.07 0.31 -1.79 0.31 l0 -1.56 c0.57334 0 1.0167 -0.08334 1.33 -0.25 s0.54334 -0.4 0.69 -0.7 s0.23 -0.65666 0.25 -1.07 s0.03 -0.86 0.03 -1.34 l0 -10.46 l1.44 0 l0 10.96 z M88.588 20 l-1.4 0 l-1.06 -4.3 l-4.36 0 l-1.06 4.3 l-1.36 0 l4.06 -15 l1.14 0 z M85.788 14.36 l-1.78 -7.42 l-1.9 7.42 l3.68 0 z M100.0465 20 l-1.56 0 l-5.2 -11.8 l0 11.8 l-1.44 0 l0 -15 l1.44 0 l5.22 11.3 l0.12 -11.3 l1.42 0 l0 15 z M111.34499999999998 20 l-7.5 0 l0 -15 l7.36 0 l0 1.52 l-5.98 0 l0 5.16 l5.94 0 l0 1.3 l-5.94 0 l0 5.5 l6.12 0 l0 1.52 z M122.16349999999997 6.460000000000001 l-3.1 0 l0 13.54 l-1.48 0 l0 -13.54 l-3.1 0 l0 -1.46 l7.68 0 l0 1.46 z M132.80199999999996 6.460000000000001 l-3.1 0 l0 13.54 l-1.48 0 l0 -13.54 l-3.1 0 l0 -1.46 l7.68 0 l0 1.46 z M143.54049999999998 20 l-7.5 0 l0 -15 l7.36 0 l0 1.52 l-5.98 0 l0 5.16 l5.94 0 l0 1.3 l-5.94 0 l0 5.5 l6.12 0 l0 1.52 z M160.3775 15.54 c0 1.4 -0.39336 2.4934 -1.18 3.28 s-1.88 1.18 -3.28 1.18 l-3.44 0 l0 -15 l2.98 0 c1.32 0 2.3366 0.32334 3.05 0.97 s1.07 1.6367 1.07 2.97 c0 0.56 -0.15334 1.0833 -0.46 1.57 s-0.67332 0.90332 -1.1 1.25 c0.68 0.44 1.2433 0.96666 1.69 1.58 s0.67 1.3467 0.67 2.2 z M158.2575 8.94 c0 -0.73334 -0.2 -1.3434 -0.6 -1.83 s-0.98666 -0.73 -1.76 -0.73 l-2.04 0 l0 4.86 l2.24 0 c0.32 0 0.61 -0.06334 0.87 -0.19 s0.48666 -0.29332 0.68 -0.49998 s0.34334 -0.45 0.45 -0.73 s0.16 -0.57334 0.16 -0.88 z M159.0375 15.620000000000001 c0 -0.96 -0.26664 -1.7033 -0.79998 -2.23 s-1.2733 -0.79 -2.22 -0.79 l-2.16 0 l0 5.98 l1.84 0 c0.46666 0 0.90332 -0.06 1.31 -0.18 s0.76 -0.3 1.06 -0.54 s0.53666 -0.54666 0.71 -0.92 s0.26 -0.81334 0.26 -1.32 z M172.29600000000002 20 l-1.72 -0.000019531 l-3.14 -6.06 l-2.6 0 l0 6.06 l-1.34 0 l0 -15 l3.44 0 c1.3733 0 2.46 0.39334 3.26 1.18 s1.2 1.8667 1.2 3.24 c0 0.42666 -0.05666 0.86 -0.17 1.3 s-0.27668 0.85334 -0.49002 1.24 s-0.47668 0.73666 -0.79002 1.05 s-0.67 0.55668 -1.07 0.73002 z M169.976 9.32 c0 -0.46666 -0.08 -0.88664 -0.24 -1.26 s-0.38 -0.69 -0.66 -0.95 s-0.61334 -0.46 -1 -0.6 s-0.80666 -0.21 -1.26 -0.21 l-1.98 0 l0 6.26 l2.1 0 c1.0667 0 1.84 -0.28666 2.32 -0.86 s0.72 -1.3667 0.72 -2.38 z M182.7945 16.12 c0 1.4133 -0.31666 2.4434 -0.95 3.09 s-1.6633 0.97 -3.09 0.97 c-1.3067 0 -2.2634 -0.36 -2.87 -1.08 s-0.91 -1.7133 -0.91 -2.98 l0 -7.2 c0 -1.3733 0.32334 -2.3934 0.97 -3.06 s1.6633 -1 3.05 -1 c1.32 0 2.2834 0.35 2.89 1.05 s0.91 1.69 0.91 2.97 l0 7.24 z M181.3945 16.08 l-0.000019531 -7.22 c0 -0.76 -0.2 -1.3933 -0.6 -1.9 s-1.0067 -0.76 -1.82 -0.76 c-0.97334 0 -1.65 0.25334 -2.03 0.76 s-0.57 1.22 -0.57 2.14 l0 6.9 c0 0.38666 0.04334 0.75 0.13 1.09 s0.22666 0.63666 0.42 0.89 s0.44 0.45334 0.74 0.6 s0.66334 0.22 1.09 0.22 c0.93334 0 1.6067 -0.22666 2.02 -0.68 s0.62 -1.1333 0.62 -2.04 z M193.51300000000003 14.8 c-0.01334 0.74666 -0.040038 1.4466 -0.080038 2.1 s-0.17666 1.2233 -0.41 1.71 s-0.60334 0.87 -1.11 1.15 s-1.2267 0.42 -2.16 0.42 c-0.65334 0 -1.2067 -0.09666 -1.66 -0.29 s-0.82 -0.46668 -1.1 -0.82002 s-0.48334 -0.78 -0.61 -1.28 s-0.19 -1.0567 -0.19 -1.67 l0 -7.2 c0 -0.65334 0.06666 -1.2333 0.2 -1.74 s0.35 -0.93332 0.65 -1.28 s0.69 -0.60666 1.17 -0.78 s1.0667 -0.26 1.76 -0.26 c0.84 0 1.4933 0.14334 1.96 0.43 s0.81666 0.67 1.05 1.15 s0.37668 1.03 0.43002 1.65 s0.08668 1.2633 0.10002 1.93 l-1.32 0 c0 -0.44 -0.0033398 -0.89334 -0.01 -1.36 s-0.07332 -0.89 -0.19998 -1.27 s-0.34666 -0.69334 -0.66 -0.94 s-0.77668 -0.37 -1.39 -0.37 c-0.46666 0 -0.85666 0.06666 -1.17 0.2 s-0.56 0.32668 -0.74 0.58002 s-0.30666 0.55334 -0.38 0.9 s-0.11 0.73332 -0.11 1.16 l0.04 7.3 c0 0.4 0.03 0.76334 0.09 1.09 s0.17 0.60666 0.33 0.84 s0.38334 0.41334 0.67 0.54 s0.65 0.19 1.09 0.19 c0.68 0 1.1867 -0.11666 1.52 -0.35 s0.56668 -0.54334 0.70002 -0.93 s0.20334 -0.82332 0.21 -1.31 s0.01 -0.98332 0.01 -1.49 l1.32 0 z M205.15150000000003 20 l-1.52 0 l-3.26 -7.7 l-1.7 2.62 l0 5.08 l-1.34 0 l0 -15 l1.34 0 l0 7.2 l4.52 -7.2 l1.62 0 l-3.46 6.14 z"/></g>
			</g>
		</svg>
	